<mxfile host="app.diagrams.net" agent="Mozilla/5.0 (Windows NT 10.0; Win64; x64) AppleWebKit/537.36 (KHTML, like Gecko) Chrome/130.0.0.0 Safari/537.36" version="24.8.6">
  <diagram name="Puslapis-1" id="k59W9-ao-fo9DVot0w9S">
    <mxGraphModel dx="1147" dy="590" grid="1" gridSize="10" guides="1" tooltips="1" connect="1" arrows="1" fold="1" page="1" pageScale="1" pageWidth="827" pageHeight="1169" math="0" shadow="0">
      <root>
        <mxCell id="0" />
        <mxCell id="1" parent="0" />
        <mxCell id="HYWn-d97UVtd30y1if96-47" style="edgeStyle=orthogonalEdgeStyle;rounded=0;orthogonalLoop=1;jettySize=auto;html=1;entryX=0.5;entryY=0;entryDx=0;entryDy=0;endArrow=none;endFill=0;" edge="1" parent="1" source="HYWn-d97UVtd30y1if96-1" target="HYWn-d97UVtd30y1if96-3">
          <mxGeometry relative="1" as="geometry">
            <Array as="points">
              <mxPoint x="170" y="220" />
              <mxPoint x="55" y="220" />
            </Array>
          </mxGeometry>
        </mxCell>
        <mxCell id="HYWn-d97UVtd30y1if96-48" style="edgeStyle=orthogonalEdgeStyle;rounded=0;orthogonalLoop=1;jettySize=auto;html=1;entryX=0.5;entryY=0;entryDx=0;entryDy=0;endArrow=none;endFill=0;" edge="1" parent="1" source="HYWn-d97UVtd30y1if96-1" target="HYWn-d97UVtd30y1if96-4">
          <mxGeometry relative="1" as="geometry" />
        </mxCell>
        <mxCell id="HYWn-d97UVtd30y1if96-49" style="edgeStyle=orthogonalEdgeStyle;rounded=0;orthogonalLoop=1;jettySize=auto;html=1;entryX=0.5;entryY=0;entryDx=0;entryDy=0;endArrow=none;endFill=0;" edge="1" parent="1" source="HYWn-d97UVtd30y1if96-1" target="HYWn-d97UVtd30y1if96-5">
          <mxGeometry relative="1" as="geometry" />
        </mxCell>
        <mxCell id="HYWn-d97UVtd30y1if96-50" style="edgeStyle=orthogonalEdgeStyle;rounded=0;orthogonalLoop=1;jettySize=auto;html=1;entryX=0.5;entryY=0;entryDx=0;entryDy=0;endArrow=none;endFill=0;" edge="1" parent="1" source="HYWn-d97UVtd30y1if96-1" target="HYWn-d97UVtd30y1if96-6">
          <mxGeometry relative="1" as="geometry" />
        </mxCell>
        <mxCell id="HYWn-d97UVtd30y1if96-1" value="Car" style="rounded=0;whiteSpace=wrap;html=1;" vertex="1" parent="1">
          <mxGeometry x="110" y="140" width="120" height="60" as="geometry" />
        </mxCell>
        <mxCell id="HYWn-d97UVtd30y1if96-43" style="edgeStyle=orthogonalEdgeStyle;rounded=0;orthogonalLoop=1;jettySize=auto;html=1;entryX=0.5;entryY=1;entryDx=0;entryDy=0;endArrow=none;endFill=0;" edge="1" parent="1" source="HYWn-d97UVtd30y1if96-2" target="HYWn-d97UVtd30y1if96-42">
          <mxGeometry relative="1" as="geometry" />
        </mxCell>
        <mxCell id="HYWn-d97UVtd30y1if96-45" value="N" style="edgeLabel;html=1;align=center;verticalAlign=middle;resizable=0;points=[];" vertex="1" connectable="0" parent="HYWn-d97UVtd30y1if96-43">
          <mxGeometry x="-0.0004" y="-1" relative="1" as="geometry">
            <mxPoint as="offset" />
          </mxGeometry>
        </mxCell>
        <mxCell id="HYWn-d97UVtd30y1if96-51" style="edgeStyle=orthogonalEdgeStyle;rounded=0;orthogonalLoop=1;jettySize=auto;html=1;entryX=0.5;entryY=0;entryDx=0;entryDy=0;endArrow=none;endFill=0;exitX=0.5;exitY=1;exitDx=0;exitDy=0;" edge="1" parent="1" source="HYWn-d97UVtd30y1if96-2" target="HYWn-d97UVtd30y1if96-27">
          <mxGeometry relative="1" as="geometry">
            <mxPoint x="710" y="420.0000000000001" as="sourcePoint" />
            <Array as="points">
              <mxPoint x="600" y="440" />
              <mxPoint x="495" y="440" />
            </Array>
          </mxGeometry>
        </mxCell>
        <mxCell id="HYWn-d97UVtd30y1if96-54" style="edgeStyle=orthogonalEdgeStyle;rounded=0;orthogonalLoop=1;jettySize=auto;html=1;entryX=0.5;entryY=0;entryDx=0;entryDy=0;endArrow=none;endFill=0;" edge="1" parent="1" source="HYWn-d97UVtd30y1if96-2" target="HYWn-d97UVtd30y1if96-30">
          <mxGeometry relative="1" as="geometry">
            <Array as="points">
              <mxPoint x="600" y="440" />
              <mxPoint x="535" y="440" />
            </Array>
          </mxGeometry>
        </mxCell>
        <mxCell id="HYWn-d97UVtd30y1if96-55" style="edgeStyle=orthogonalEdgeStyle;rounded=0;orthogonalLoop=1;jettySize=auto;html=1;entryX=0.5;entryY=0;entryDx=0;entryDy=0;endArrow=none;endFill=0;" edge="1" parent="1" source="HYWn-d97UVtd30y1if96-2" target="HYWn-d97UVtd30y1if96-31">
          <mxGeometry relative="1" as="geometry">
            <Array as="points">
              <mxPoint x="600" y="440" />
              <mxPoint x="580" y="440" />
            </Array>
          </mxGeometry>
        </mxCell>
        <mxCell id="HYWn-d97UVtd30y1if96-56" style="edgeStyle=orthogonalEdgeStyle;rounded=0;orthogonalLoop=1;jettySize=auto;html=1;entryX=0.5;entryY=0;entryDx=0;entryDy=0;endArrow=none;endFill=0;" edge="1" parent="1" source="HYWn-d97UVtd30y1if96-2" target="HYWn-d97UVtd30y1if96-32">
          <mxGeometry relative="1" as="geometry">
            <Array as="points">
              <mxPoint x="600" y="440" />
              <mxPoint x="655" y="440" />
            </Array>
          </mxGeometry>
        </mxCell>
        <mxCell id="HYWn-d97UVtd30y1if96-2" value="Order" style="rounded=0;whiteSpace=wrap;html=1;" vertex="1" parent="1">
          <mxGeometry x="540" y="360" width="120" height="60" as="geometry" />
        </mxCell>
        <mxCell id="HYWn-d97UVtd30y1if96-3" value="&lt;u&gt;id&lt;/u&gt;" style="ellipse;whiteSpace=wrap;html=1;" vertex="1" parent="1">
          <mxGeometry x="40" y="240" width="30" height="50" as="geometry" />
        </mxCell>
        <mxCell id="HYWn-d97UVtd30y1if96-4" value="brand" style="ellipse;whiteSpace=wrap;html=1;" vertex="1" parent="1">
          <mxGeometry x="80" y="240" width="40" height="50" as="geometry" />
        </mxCell>
        <mxCell id="HYWn-d97UVtd30y1if96-5" value="model" style="ellipse;whiteSpace=wrap;html=1;" vertex="1" parent="1">
          <mxGeometry x="130" y="240" width="40" height="50" as="geometry" />
        </mxCell>
        <mxCell id="HYWn-d97UVtd30y1if96-6" value="priceForDay" style="ellipse;whiteSpace=wrap;html=1;" vertex="1" parent="1">
          <mxGeometry x="180" y="240" width="80" height="50" as="geometry" />
        </mxCell>
        <mxCell id="HYWn-d97UVtd30y1if96-22" style="edgeStyle=orthogonalEdgeStyle;rounded=0;orthogonalLoop=1;jettySize=auto;html=1;entryX=0.5;entryY=0;entryDx=0;entryDy=0;endArrow=none;endFill=0;" edge="1" parent="1" source="HYWn-d97UVtd30y1if96-7" target="HYWn-d97UVtd30y1if96-8">
          <mxGeometry relative="1" as="geometry" />
        </mxCell>
        <mxCell id="HYWn-d97UVtd30y1if96-23" style="edgeStyle=orthogonalEdgeStyle;rounded=0;orthogonalLoop=1;jettySize=auto;html=1;entryX=0.5;entryY=0;entryDx=0;entryDy=0;endArrow=none;endFill=0;" edge="1" parent="1" source="HYWn-d97UVtd30y1if96-7" target="HYWn-d97UVtd30y1if96-9">
          <mxGeometry relative="1" as="geometry" />
        </mxCell>
        <mxCell id="HYWn-d97UVtd30y1if96-24" style="edgeStyle=orthogonalEdgeStyle;rounded=0;orthogonalLoop=1;jettySize=auto;html=1;entryX=0.5;entryY=0;entryDx=0;entryDy=0;endArrow=none;endFill=0;" edge="1" parent="1" source="HYWn-d97UVtd30y1if96-7" target="HYWn-d97UVtd30y1if96-10">
          <mxGeometry relative="1" as="geometry" />
        </mxCell>
        <mxCell id="HYWn-d97UVtd30y1if96-25" style="edgeStyle=orthogonalEdgeStyle;rounded=0;orthogonalLoop=1;jettySize=auto;html=1;entryX=0.5;entryY=0;entryDx=0;entryDy=0;endArrow=none;endFill=0;" edge="1" parent="1" source="HYWn-d97UVtd30y1if96-7" target="HYWn-d97UVtd30y1if96-11">
          <mxGeometry relative="1" as="geometry">
            <Array as="points">
              <mxPoint x="120" y="665" />
              <mxPoint x="235" y="665" />
            </Array>
          </mxGeometry>
        </mxCell>
        <mxCell id="HYWn-d97UVtd30y1if96-26" style="edgeStyle=orthogonalEdgeStyle;rounded=0;orthogonalLoop=1;jettySize=auto;html=1;entryX=0.5;entryY=0;entryDx=0;entryDy=0;endArrow=none;endFill=0;" edge="1" parent="1" source="HYWn-d97UVtd30y1if96-7" target="HYWn-d97UVtd30y1if96-12">
          <mxGeometry relative="1" as="geometry">
            <Array as="points">
              <mxPoint x="120" y="665" />
              <mxPoint x="315" y="665" />
            </Array>
          </mxGeometry>
        </mxCell>
        <mxCell id="HYWn-d97UVtd30y1if96-34" style="edgeStyle=orthogonalEdgeStyle;rounded=0;orthogonalLoop=1;jettySize=auto;html=1;entryX=0.5;entryY=0;entryDx=0;entryDy=0;endArrow=none;endFill=0;" edge="1" parent="1" source="HYWn-d97UVtd30y1if96-7" target="HYWn-d97UVtd30y1if96-33">
          <mxGeometry relative="1" as="geometry">
            <Array as="points">
              <mxPoint x="120" y="665" />
              <mxPoint x="380" y="665" />
            </Array>
          </mxGeometry>
        </mxCell>
        <mxCell id="HYWn-d97UVtd30y1if96-36" style="edgeStyle=orthogonalEdgeStyle;rounded=0;orthogonalLoop=1;jettySize=auto;html=1;entryX=0.5;entryY=1;entryDx=0;entryDy=0;endArrow=none;endFill=0;" edge="1" parent="1" source="HYWn-d97UVtd30y1if96-7" target="HYWn-d97UVtd30y1if96-35">
          <mxGeometry relative="1" as="geometry" />
        </mxCell>
        <mxCell id="HYWn-d97UVtd30y1if96-40" value="1" style="edgeLabel;html=1;align=center;verticalAlign=middle;resizable=0;points=[];" vertex="1" connectable="0" parent="HYWn-d97UVtd30y1if96-36">
          <mxGeometry x="0.0138" relative="1" as="geometry">
            <mxPoint as="offset" />
          </mxGeometry>
        </mxCell>
        <mxCell id="HYWn-d97UVtd30y1if96-7" value="Client" style="rounded=0;whiteSpace=wrap;html=1;" vertex="1" parent="1">
          <mxGeometry x="60" y="585" width="120" height="60" as="geometry" />
        </mxCell>
        <mxCell id="HYWn-d97UVtd30y1if96-8" value="&lt;u&gt;id&lt;/u&gt;" style="ellipse;whiteSpace=wrap;html=1;" vertex="1" parent="1">
          <mxGeometry x="40" y="685" width="20" height="50" as="geometry" />
        </mxCell>
        <mxCell id="HYWn-d97UVtd30y1if96-9" value="name" style="ellipse;whiteSpace=wrap;html=1;" vertex="1" parent="1">
          <mxGeometry x="70" y="685" width="40" height="50" as="geometry" />
        </mxCell>
        <mxCell id="HYWn-d97UVtd30y1if96-10" value="lastname" style="ellipse;whiteSpace=wrap;html=1;" vertex="1" parent="1">
          <mxGeometry x="120" y="685" width="60" height="50" as="geometry" />
        </mxCell>
        <mxCell id="HYWn-d97UVtd30y1if96-11" value="personalCode" style="ellipse;whiteSpace=wrap;html=1;" vertex="1" parent="1">
          <mxGeometry x="190" y="685" width="90" height="50" as="geometry" />
        </mxCell>
        <mxCell id="HYWn-d97UVtd30y1if96-19" style="edgeStyle=orthogonalEdgeStyle;rounded=0;orthogonalLoop=1;jettySize=auto;html=1;entryX=0.5;entryY=0;entryDx=0;entryDy=0;strokeColor=default;targetPerimeterSpacing=0;endArrow=none;endFill=0;" edge="1" parent="1" source="HYWn-d97UVtd30y1if96-12" target="HYWn-d97UVtd30y1if96-13">
          <mxGeometry relative="1" as="geometry" />
        </mxCell>
        <mxCell id="HYWn-d97UVtd30y1if96-20" style="edgeStyle=orthogonalEdgeStyle;rounded=0;orthogonalLoop=1;jettySize=auto;html=1;exitX=0.5;exitY=1;exitDx=0;exitDy=0;entryX=0.5;entryY=0;entryDx=0;entryDy=0;endArrow=none;endFill=0;" edge="1" parent="1" source="HYWn-d97UVtd30y1if96-12" target="HYWn-d97UVtd30y1if96-14">
          <mxGeometry relative="1" as="geometry" />
        </mxCell>
        <mxCell id="HYWn-d97UVtd30y1if96-21" style="edgeStyle=orthogonalEdgeStyle;rounded=0;orthogonalLoop=1;jettySize=auto;html=1;entryX=0.5;entryY=0;entryDx=0;entryDy=0;endArrow=none;endFill=0;" edge="1" parent="1" source="HYWn-d97UVtd30y1if96-12" target="HYWn-d97UVtd30y1if96-15">
          <mxGeometry relative="1" as="geometry" />
        </mxCell>
        <mxCell id="HYWn-d97UVtd30y1if96-12" value="address" style="ellipse;whiteSpace=wrap;html=1;" vertex="1" parent="1">
          <mxGeometry x="290" y="685" width="50" height="50" as="geometry" />
        </mxCell>
        <mxCell id="HYWn-d97UVtd30y1if96-13" value="city" style="ellipse;whiteSpace=wrap;html=1;" vertex="1" parent="1">
          <mxGeometry x="300" y="775" width="30" height="50" as="geometry" />
        </mxCell>
        <mxCell id="HYWn-d97UVtd30y1if96-14" value="street" style="ellipse;whiteSpace=wrap;html=1;" vertex="1" parent="1">
          <mxGeometry x="250" y="775" width="40" height="50" as="geometry" />
        </mxCell>
        <mxCell id="HYWn-d97UVtd30y1if96-15" value="zipCode" style="ellipse;whiteSpace=wrap;html=1;" vertex="1" parent="1">
          <mxGeometry x="340" y="775" width="50" height="50" as="geometry" />
        </mxCell>
        <mxCell id="HYWn-d97UVtd30y1if96-27" value="&lt;u&gt;id&lt;/u&gt;" style="ellipse;whiteSpace=wrap;html=1;" vertex="1" parent="1">
          <mxGeometry x="480" y="470" width="30" height="50" as="geometry" />
        </mxCell>
        <mxCell id="HYWn-d97UVtd30y1if96-57" style="edgeStyle=orthogonalEdgeStyle;rounded=0;orthogonalLoop=1;jettySize=auto;html=1;entryX=0.5;entryY=0;entryDx=0;entryDy=0;endArrow=none;endFill=0;" edge="1" parent="1" source="HYWn-d97UVtd30y1if96-28" target="HYWn-d97UVtd30y1if96-42">
          <mxGeometry relative="1" as="geometry" />
        </mxCell>
        <mxCell id="HYWn-d97UVtd30y1if96-28" value="orderDateStart" style="ellipse;whiteSpace=wrap;html=1;" vertex="1" parent="1">
          <mxGeometry x="380" y="30" width="90" height="50" as="geometry" />
        </mxCell>
        <mxCell id="HYWn-d97UVtd30y1if96-58" style="edgeStyle=orthogonalEdgeStyle;rounded=0;orthogonalLoop=1;jettySize=auto;html=1;entryX=0.5;entryY=0;entryDx=0;entryDy=0;endArrow=none;endFill=0;" edge="1" parent="1" source="HYWn-d97UVtd30y1if96-29" target="HYWn-d97UVtd30y1if96-42">
          <mxGeometry relative="1" as="geometry" />
        </mxCell>
        <mxCell id="HYWn-d97UVtd30y1if96-29" value="orderDateEnd" style="ellipse;whiteSpace=wrap;html=1;" vertex="1" parent="1">
          <mxGeometry x="480" y="30" width="80" height="50" as="geometry" />
        </mxCell>
        <mxCell id="HYWn-d97UVtd30y1if96-30" value="price" style="ellipse;whiteSpace=wrap;html=1;" vertex="1" parent="1">
          <mxGeometry x="520" y="470" width="30" height="50" as="geometry" />
        </mxCell>
        <mxCell id="HYWn-d97UVtd30y1if96-31" value="status" style="ellipse;whiteSpace=wrap;html=1;" vertex="1" parent="1">
          <mxGeometry x="560" y="470" width="40" height="50" as="geometry" />
        </mxCell>
        <mxCell id="HYWn-d97UVtd30y1if96-32" value="paymentMethod" style="ellipse;whiteSpace=wrap;html=1;" vertex="1" parent="1">
          <mxGeometry x="610" y="470" width="90" height="50" as="geometry" />
        </mxCell>
        <mxCell id="HYWn-d97UVtd30y1if96-33" value="birthDate" style="ellipse;whiteSpace=wrap;html=1;" vertex="1" parent="1">
          <mxGeometry x="350" y="685" width="60" height="50" as="geometry" />
        </mxCell>
        <mxCell id="HYWn-d97UVtd30y1if96-37" style="edgeStyle=orthogonalEdgeStyle;rounded=0;orthogonalLoop=1;jettySize=auto;html=1;entryX=0;entryY=0.5;entryDx=0;entryDy=0;" edge="1" parent="1" source="HYWn-d97UVtd30y1if96-35" target="HYWn-d97UVtd30y1if96-2">
          <mxGeometry relative="1" as="geometry" />
        </mxCell>
        <mxCell id="HYWn-d97UVtd30y1if96-41" value="N" style="edgeLabel;html=1;align=center;verticalAlign=middle;resizable=0;points=[];" vertex="1" connectable="0" parent="HYWn-d97UVtd30y1if96-37">
          <mxGeometry x="0.0027" relative="1" as="geometry">
            <mxPoint as="offset" />
          </mxGeometry>
        </mxCell>
        <mxCell id="HYWn-d97UVtd30y1if96-35" value="clientOrder" style="rhombus;whiteSpace=wrap;html=1;" vertex="1" parent="1">
          <mxGeometry x="140" y="350" width="190" height="80" as="geometry" />
        </mxCell>
        <mxCell id="HYWn-d97UVtd30y1if96-44" style="edgeStyle=orthogonalEdgeStyle;rounded=0;orthogonalLoop=1;jettySize=auto;html=1;entryX=1;entryY=0.5;entryDx=0;entryDy=0;endArrow=none;endFill=0;" edge="1" parent="1" source="HYWn-d97UVtd30y1if96-42" target="HYWn-d97UVtd30y1if96-1">
          <mxGeometry relative="1" as="geometry" />
        </mxCell>
        <mxCell id="HYWn-d97UVtd30y1if96-46" value="M" style="edgeLabel;html=1;align=center;verticalAlign=middle;resizable=0;points=[];" vertex="1" connectable="0" parent="HYWn-d97UVtd30y1if96-44">
          <mxGeometry x="-0.0251" relative="1" as="geometry">
            <mxPoint as="offset" />
          </mxGeometry>
        </mxCell>
        <mxCell id="HYWn-d97UVtd30y1if96-42" value="orderCar" style="rhombus;whiteSpace=wrap;html=1;" vertex="1" parent="1">
          <mxGeometry x="370" y="130" width="190" height="80" as="geometry" />
        </mxCell>
      </root>
    </mxGraphModel>
  </diagram>
</mxfile>
